<svg width="95" height="87" viewBox="0 0 95 87" fill="none" xmlns="http://www.w3.org/2000/svg">
<path d="M28.9768 81.9062C28.5161 82.3254 27.9788 82.6516 27.3944 82.8669C26.7523 83.1022 26.073 83.2196 25.3891 83.2133C24.662 83.231 23.9411 83.076 23.2854 82.7612C22.757 82.4992 22.3143 82.092 22.0094 81.5872C21.6922 81.0489 21.5324 80.4325 21.5481 79.808C21.534 79.0066 21.7538 78.2185 22.1807 77.5402C22.6156 76.8568 23.2306 76.3067 23.9581 75.9505C24.7705 75.547 25.667 75.342 26.5741 75.3526C27.7955 75.3526 28.7744 75.6971 29.5656 76.4045L30.4971 77.2394L32.9107 75.081L31.8169 74.0346C31.1427 73.4009 30.3462 72.9115 29.4763 72.5963C28.5636 72.2658 27.5994 72.1004 26.6288 72.1077C25.1891 72.0962 23.7681 72.4334 22.487 73.0903C21.2403 73.7207 20.1844 74.6721 19.428 75.8466C18.6655 77.0348 18.2669 78.4199 18.2814 79.8317C18.2593 81.0284 18.5749 82.2072 19.1921 83.2328C19.8092 84.2585 20.7028 85.0895 21.7705 85.6305C22.8807 86.1922 24.1105 86.4762 25.3545 86.4582C26.4288 86.4653 27.4956 86.28 28.5046 85.9113C29.488 85.5447 30.3912 84.9913 31.1643 84.2815L32.2198 83.3135L29.9812 80.9801L28.9768 81.9062Z" fill="black"/>
<path d="M33.7051 86.4583H37.0721L41.3962 67.0801H38.0292L33.7051 86.4583Z" fill="black"/>
<path d="M54.4587 72.9377C53.3498 72.3744 52.1202 72.0897 50.8765 72.1083C49.4369 72.0968 48.0158 72.4339 46.7347 73.0909C45.4879 73.7216 44.4314 74.673 43.674 75.8472C42.9122 77.0357 42.5137 78.4206 42.5273 79.8322C42.5067 81.0289 42.8232 82.2073 43.4405 83.2327C44.0578 84.2582 44.9511 85.0893 46.0183 85.6311C47.1284 86.193 48.3582 86.477 49.6023 86.4587C51.0419 86.4698 52.4629 86.1327 53.7441 85.4762C54.9943 84.8429 56.0519 83.886 56.8067 82.7052C57.5651 81.5134 57.9621 80.1274 57.9497 78.7147C57.9663 77.5219 57.6482 76.3483 57.0315 75.3271C56.4147 74.306 55.524 73.4782 54.4605 72.9377H54.4587ZM54.641 78.7366C54.6574 79.5451 54.4375 80.3409 54.0084 81.0263C53.576 81.7092 52.9643 82.2604 52.2402 82.6196C51.4334 83.0222 50.5421 83.226 49.6406 83.2139C48.9135 83.2315 48.1925 83.0766 47.5369 82.7617C47.0068 82.5065 46.5632 82.1015 46.2608 81.5969C45.9474 81.054 45.7903 80.4351 45.8068 79.8085C45.7919 79.0071 46.0118 78.2187 46.4394 77.5407C46.8716 76.858 47.4834 76.3074 48.2077 75.9493C49.0134 75.5456 49.9043 75.3411 50.8055 75.3532C51.5325 75.3362 52.2533 75.4911 52.9092 75.8053C53.4359 76.062 53.8762 76.4668 54.1761 76.9702C54.4944 77.5038 54.6585 78.1153 54.6501 78.7366H54.641Z" fill="black"/>
<path d="M70.1308 79.1534C69.8519 80.4294 69.2649 81.3865 68.337 82.0938C67.4091 82.8011 66.2442 83.1876 64.8734 83.215C63.9929 83.215 63.3475 83.0545 62.9574 82.741C62.7478 82.5714 62.5071 82.2907 62.5071 81.598C62.5126 81.3282 62.5437 81.0597 62.6001 80.7959L64.5252 72.1094H61.1581L59.3698 80.1852C59.2508 80.6771 59.1896 81.1812 59.1875 81.6873C59.1875 83.1821 59.7563 84.4218 60.8282 85.2749C61.8181 86.0624 63.1835 86.4598 64.8898 86.4598H64.9153C66.2271 86.4453 67.5209 86.152 68.7107 85.5994L68.5284 86.4598H71.8882L75.0565 72.1094H71.6712L70.1308 79.1534Z" fill="black"/>
<path d="M91.0932 67.0371L89.5965 73.7639C89.4397 73.629 89.272 73.4996 89.0989 73.3756C87.8228 72.4787 86.2951 72.0248 84.5414 72.0248C83.0824 72.0145 81.645 72.3786 80.3668 73.0821C79.1187 73.7581 78.0677 74.7469 77.3169 75.9515C76.5576 77.1681 76.1593 78.5753 76.1685 80.0094C76.1528 81.2053 76.486 82.3797 77.1273 83.3892C77.7683 84.3823 78.6745 85.1761 79.7433 85.6807C80.8681 86.21 82.0989 86.4756 83.3419 86.4573C84.5725 86.4664 85.7915 86.218 86.9204 85.7281L86.7636 86.4226H90.1379L94.462 67.0444L91.0932 67.0371ZM88.4171 78.5364C88.4251 79.3543 88.1979 80.1573 87.7626 80.8498C87.3182 81.5753 86.6891 82.1698 85.9396 82.5725C85.1593 83.005 84.2795 83.2262 83.3875 83.2142C82.6461 83.2299 81.9109 83.0759 81.2382 82.7639C80.6983 82.5147 80.2405 82.117 79.9183 81.6173C79.6066 81.1158 79.4482 80.5341 79.4626 79.9438C79.4548 79.1256 79.6812 78.3223 80.1152 77.6286C80.5609 76.9041 81.1897 76.3099 81.9382 75.9059C82.7184 75.4732 83.5983 75.2526 84.4904 75.266C85.2309 75.2508 85.9653 75.4041 86.6378 75.7145C87.1781 75.9639 87.636 76.3623 87.9577 76.863C88.2714 77.3638 88.4311 77.9457 88.4171 78.5364Z" fill="black"/>
<path d="M6.87484 72.7496V72.7387C6.90583 72.4689 7.03162 72.0624 7.77175 71.6449C8.51188 71.2275 9.57467 70.9959 10.8708 70.9959C11.5529 70.9984 12.2324 71.0792 12.8961 71.2366C13.4123 71.3448 13.9086 71.5324 14.3673 71.7926L15.0181 72.19L15.5084 72.489L15.873 72.0496L17.2293 70.4326L17.7416 69.8219L17.0525 69.4245L16.141 68.8959C15.3909 68.4777 14.5867 68.1648 13.7511 67.9662C12.8253 67.7293 11.8738 67.6068 10.9182 67.6016C8.94573 67.6016 7.27225 67.9917 5.96335 68.7646C4.45939 69.6469 3.60989 70.8683 3.43671 72.396C3.40937 72.6179 3.39718 72.8414 3.40024 73.065C3.40024 74.2098 3.73202 75.1815 4.3883 75.9508C4.96456 76.6269 5.69393 77.1556 6.51572 77.493C7.3854 77.8424 8.27254 78.1467 9.17361 78.4045C10.1234 78.6871 10.8781 78.9514 11.4177 79.1683C11.7806 79.3135 12.105 79.5406 12.3656 79.8319C12.4659 79.9467 12.599 80.1509 12.599 80.6158C12.6003 80.7174 12.596 80.8191 12.5862 80.9202V80.9512C12.5461 81.3158 12.4039 81.8317 11.5435 82.3294C10.683 82.8271 9.5929 83.0586 8.19832 83.0586C7.32563 83.0614 6.46008 82.9013 5.64615 82.5864C4.97432 82.3457 4.36244 81.9626 3.85235 81.4635L3.27993 80.8692L2.84607 80.4226L2.36115 80.8364L0.709521 82.2218L0.142578 82.6958L0.67307 83.2117L1.37674 83.8971C2.24168 84.7157 3.26458 85.349 4.38282 85.7584C5.57925 86.2198 6.85038 86.4571 8.1327 86.4584C10.2127 86.4584 11.9719 86.0355 13.3646 85.1987C14.9415 84.2526 15.8257 82.9383 15.9934 81.2903C16.0272 81.0437 16.0467 80.7954 16.0517 80.5465C16.0517 79.378 15.7108 78.3972 15.0345 77.6298C14.4582 76.9763 13.744 76.4589 12.9435 76.1149C12.0633 75.7481 11.1639 75.4292 10.2492 75.1596H10.2382C9.49066 74.9574 8.75488 74.714 8.03425 74.4304C7.66795 74.2855 7.33897 74.0599 7.07171 73.7705C6.97692 73.6684 6.85479 73.4825 6.85479 73.0413C6.85479 72.8754 6.85479 72.8171 6.85479 72.8134L6.87484 72.7496Z" fill="#2813D3"/>
<path d="M26.9648 57.8928H30.9499L33.2705 55.5977H29.2873L26.9648 57.8928Z" fill="url(#paint0_linear_8261_46517)"/>
<path d="M37.9149 51.0073L37.9222 51L33.9281 51.0073L31.6074 53.3024H35.5924L37.9131 51.0073H37.9149Z" fill="url(#paint1_linear_8261_46517)"/>
<path d="M71.6891 20.773C70.7016 15.0928 67.7621 9.93556 63.378 6.19136C58.9938 2.44716 53.4401 0.35094 47.6754 0.264503C41.9106 0.178065 36.2966 2.10683 31.8022 5.71791C27.3077 9.32899 24.2149 14.3958 23.0576 20.0438C23.0576 20.0438 22.5216 22.8384 23.3164 26.9274C23.9001 29.0411 24.9603 30.993 26.4155 32.6333C30.2383 36.9392 36.5367 39.1267 45.1393 39.1267C51.4213 39.1267 54.7062 41.9724 54.7062 44.778C54.7062 46.1707 53.8969 47.5307 52.4239 48.6062C51.2663 49.4521 49.2902 50.4292 46.0818 50.8102C45.0997 50.9238 44.1117 50.9792 43.1231 50.9761L41.9144 50.9907L41.8725 51.0326L39.5774 53.3022H35.596L33.2754 55.5973H37.2567L34.9306 57.9034H48.0305C55.8146 57.9034 59.6028 51.018 59.6028 51.018C60.8944 49.1934 61.5892 47.0135 61.5916 44.778C61.5916 38.5489 55.9404 32.2432 45.1393 32.2432C38.6349 32.2432 34.0848 30.8541 31.6201 28.1123C30.2863 26.635 29.5842 24.6941 29.6641 22.7054L29.7789 21.5314C30.6224 17.2786 32.9836 13.4776 36.4224 10.8371C39.8612 8.19664 44.1429 6.89679 48.4693 7.17991C52.7957 7.46302 56.8715 9.30979 59.9368 12.3759C63.0022 15.442 64.848 19.5183 65.1301 23.8447L65.3834 27.9209L71.8167 21.5004L71.6891 20.773Z" fill="url(#paint2_linear_8261_46517)"/>
<path d="M23.8138 51.0097H28.2218L21.4768 57.7657L20.7476 57.6417C16.3208 56.9082 12.2976 54.6284 9.39355 51.2077C6.48953 47.7869 4.89292 43.447 4.8877 38.9599C4.8877 30.5177 10.486 23.3133 18.1662 20.896C19.7537 20.3943 21.401 20.1067 23.0646 20.041C23.0646 20.041 22.5286 22.8356 23.3235 26.9246C22.0476 26.9757 20.7882 27.2318 19.5937 27.6829C16.9456 28.6698 14.7287 30.5562 13.3309 33.0122C11.933 35.4683 11.4432 38.3376 11.9469 41.1183C12.4507 43.899 13.9161 46.4141 16.0868 48.2236C18.2574 50.0331 20.9952 51.0219 23.8211 51.017L23.8138 51.0097Z" fill="url(#paint3_linear_8261_46517)"/>
<path d="M89.729 38.9585C89.724 43.6493 87.9802 48.1718 84.8347 51.6517C81.6892 55.1316 77.3653 57.3218 72.6988 57.799L71.2805 57.8938H48.0303C55.8144 57.8938 59.6025 51.0084 59.6025 51.0084H70.7974C73.6658 51.0016 76.4378 49.9717 78.6148 48.104C80.7919 46.2363 82.2313 43.6532 82.6742 40.8191C83.1171 37.9851 82.5345 35.086 81.0311 32.6431C79.5277 30.2001 77.2021 28.3737 74.4725 27.492L72.2467 26.7756L77.7156 21.3066L78.6143 21.7168C81.9227 23.2258 84.7285 25.6524 86.6986 28.7087C88.6688 31.7649 89.7206 35.3223 89.729 38.9585Z" fill="url(#paint4_linear_8261_46517)"/>
<defs>
<linearGradient id="paint0_linear_8261_46517" x1="14.3517" y1="40.9792" x2="46.7004" y2="73.3279" gradientUnits="userSpaceOnUse">
<stop stop-color="#E20097"/>
<stop offset="1" stop-color="#001AD6"/>
</linearGradient>
<linearGradient id="paint1_linear_8261_46517" x1="18.9706" y1="36.356" x2="51.3193" y2="68.7047" gradientUnits="userSpaceOnUse">
<stop stop-color="#E20097"/>
<stop offset="1" stop-color="#001AD6"/>
</linearGradient>
<linearGradient id="paint2_linear_8261_46517" x1="36.2486" y1="19.0813" x2="68.5973" y2="51.43" gradientUnits="userSpaceOnUse">
<stop stop-color="#E20097"/>
<stop offset="1" stop-color="#001AD6"/>
</linearGradient>
<linearGradient id="paint3_linear_8261_46517" x1="17.942" y1="37.3885" x2="50.2907" y2="69.7372" gradientUnits="userSpaceOnUse">
<stop stop-color="#E20097"/>
<stop offset="1" stop-color="#001AD6"/>
</linearGradient>
<linearGradient id="paint4_linear_8261_46517" x1="39.8488" y1="15.4804" x2="72.1975" y2="47.8309" gradientUnits="userSpaceOnUse">
<stop stop-color="#E20097"/>
<stop offset="1" stop-color="#001AD6"/>
</linearGradient>
</defs>
</svg>
